<!-- Generator: Adobe Illustrator 22.1.0, SVG Export Plug-In  -->
<svg version="1.1"
	 xmlns="http://www.w3.org/2000/svg" xmlns:xlink="http://www.w3.org/1999/xlink" xmlns:a="http://ns.adobe.com/AdobeSVGViewerExtensions/3.0/"
	 x="0px" y="0px" width="202.7px" height="207.2px" viewBox="0 0 202.7 207.2" style="enable-background:new 0 0 202.7 207.2;"
	 xml:space="preserve">
<style type="text/css">
	.st0{fill:#BEE3F6;}
	.st1{fill:#2D3656;}
	.st2{fill:#F7C899;}
	.st3{fill:#D9B087;}
	.st4{fill:#47211C;}
	.st5{fill:#EDC093;}
	.st6{fill:#5C312A;}
	.st7{fill:#D9AA7C;}
	.st8{fill:#FFFFFF;}
	.st9{fill:#B5895D;}
	.st10{fill:#424C71;}
	.st11{fill:#222B4A;}
	.st12{fill:#E0E0E0;}
</style>
<defs>
</defs>
<g>
	<path class="st0" d="M202.7,105.8c0,56-45.4,101.4-101.4,101.4C45.4,207.2,0,161.8,0,105.8C0,49.9,45.4,4.5,101.4,4.5
		C157.4,4.5,202.7,49.9,202.7,105.8z"/>
	<g>
		<path class="st1" d="M72.8,155.6c-6.4,0.7-9.4,1.7-10.7,9.3l-4.5,32.4c10.1,4.8,21.1,8,32.7,9.3l-5-44.3
			C84.8,157.9,79.2,154.9,72.8,155.6z"/>
		<path class="st2" d="M112.2,157.8c0,6.1-5,6-11.1,6l0,0c-6.1,0-11.1,0.1-11.1-6v-44.7c0-6.1,5-11.1,11.1-11.1l0,0
			c6.1,0,11.1,5,11.1,11.1V157.8z"/>
		<path class="st3" d="M89.9,150.9c0.8,0,1.6,0,2.4,0c7.1,0,13.8-1.2,19.9-3.3v-34.6c0-6.1-5-11.1-11.1-11.1
			c-6.1,0-11.1,5-11.1,11.1V150.9z"/>
		<g>
			<path class="st4" d="M51.8,30c-11,35.4,7,64.6,7,64.6s-2.4-39,11.6-50L51.8,30z"/>
			<g>
				<path class="st2" d="M166.3,80.6c0,8.6-8.5,20.6-15.3,20.6c-6.8,0-9.3-12-9.3-20.6c0-8.6,5.5-10.2,12.3-10.2
					C160.8,70.4,166.3,71.9,166.3,80.6z"/>
				<path class="st5" d="M164.1,81.4c0,7.1-7,15.8-12.6,15.8s-7.6-8.7-7.6-15.8c0-7.1,4.5-8.4,10.1-8.4
					C159.6,73,164.1,74.3,164.1,81.4z"/>
				<path class="st2" d="M153,85.4c0.4,1.1-1.2,2.8-3.7,3.8c-2.5,1-4.8,0.9-5.3-0.2c-0.4-1.1,1.2-2.8,3.7-3.8
					C150.2,84.2,152.5,84.3,153,85.4z"/>
				<path class="st3" d="M154,73c-3.7,0-7,0.6-8.7,3.1c1.8-1.3,4.4-1.6,7.3-1.6c5.6,0,10.1,1.3,10.1,8.4c0,3.9-2.1,8.3-4.9,11.4
					c3.5-3.1,6.4-8.3,6.4-12.9C164.1,74.3,159.6,73,154,73z"/>
			</g>
			<path class="st2" d="M147.2,90.2L147.2,90.2c0,0-3.3-17.1-4.3-36.3c-0.6-12-7.7-29.8-42-29.8c-34.3,0-41.7,17.8-42,29.8
				c-0.3,14.6-4.3,36.3-4.3,36.3l0,0c-1.9,5.7-3,11-3.2,15.2c-1.1,22.1,21,40.7,49.4,40.7s50.5-18.6,49.4-40.7
				C150.2,101.1,149.1,95.8,147.2,90.2z"/>
			<path class="st6" d="M150.5,30c11,35.4-7,64.6-7,64.6s2.4-39-11.6-50c0,0-49.2,33.1-83.5,10.4C34.1,45.5,25.2,16,25.2,16
				S41.1,7.3,60,8.5c0,0-3-4.9-1.8-8.5c0,0,37.2-0.9,48.8,16c0,0-1.8-7.2,0-10.4c0,0,10.4,6.6,13.4,10.4
				C124.2,21,139.3,30.6,150.5,30z"/>
			<path class="st7" d="M89.6,90.8c0,0-7,14.1-17,11.7c0,0,6.4,14.1,17,9.9c0,0-6.6-1.7-8.5-6.2C81.1,106.2,88.5,105.3,89.6,90.8z"
				/>
			<g>
				<path class="st4" d="M83.1,73.1c0,0,0-0.1-0.1-0.3c-0.1-0.2-0.3-0.5-0.5-0.8c-0.2-0.3-0.6-0.7-0.9-1c-0.4-0.3-0.9-0.7-1.4-0.9
					c-0.6-0.3-1.2-0.6-1.8-0.8c-0.7-0.2-1.4-0.4-2.1-0.5c-0.7-0.1-1.5-0.1-2.3-0.1c-0.8,0.1-1.6,0.2-2.3,0.4
					c-0.8,0.2-1.5,0.5-2.2,0.8c-0.4,0.2-0.7,0.4-1.1,0.5c-0.3,0.2-0.7,0.4-1,0.6c-0.7,0.4-1.3,0.9-1.9,1.4c-0.6,0.5-1.1,1-1.6,1.4
					c-0.5,0.5-1,0.9-1.4,1.3c-0.4,0.4-0.8,0.8-1.1,1.1c-0.6,0.6-1,0.9-1,0.9s0.1-0.5,0.3-1.3c0.1-0.4,0.3-0.9,0.5-1.5
					c0.2-0.6,0.5-1.2,0.8-1.9c0.4-0.7,0.8-1.4,1.3-2.1c0.5-0.7,1.2-1.4,1.9-2.1c1.4-1.3,3.4-2.4,5.5-3c1.1-0.2,2.2-0.4,3.2-0.4
					c1.1,0,2.1,0.2,3.1,0.5c2,0.6,3.6,1.7,4.7,2.9c0.6,0.6,0.9,1.3,1.2,1.8c0.3,0.6,0.4,1.2,0.4,1.6c0.1,0.5,0,0.8-0.1,1.1
					C83.1,73,83.1,73.1,83.1,73.1z"/>
			</g>
			<path class="st8" d="M72.7,93.5c4.3,0,8.3-0.8,11.7-2.3c-0.1-8.1-5.3-14.6-11.7-14.6c-6.4,0-11.6,6.5-11.7,14.6
				C64.4,92.6,68.4,93.5,72.7,93.5z"/>
			<path class="st8" d="M116.7,95.4c5.3,0,10.2-1,14.3-2.8c-0.1-9.9-6.5-17.9-14.3-17.9c-7.8,0-14.2,8-14.3,17.9
				C106.5,94.4,111.4,95.4,116.7,95.4z"/>
			<path class="st4" d="M73.5,87c0,2.9-1.4,5.3-3.1,5.3c-1.7,0-3.1-2.4-3.1-5.3c0-2.9,1.4-5.3,3.1-5.3C72.1,81.7,73.5,84,73.5,87z"
				/>
			<path class="st4" d="M115.1,87c0,3.1-1.5,5.7-3.3,5.7c-1.8,0-3.3-2.5-3.3-5.7c0-3.1,1.5-5.7,3.3-5.7
				C113.6,81.3,115.1,83.8,115.1,87z"/>
			<polygon class="st8" points="67.2,82.6 70.4,86 67.2,85.1 			"/>
			<polygon class="st8" points="108.2,82.5 112.2,86.8 108.2,85.5 			"/>
			<g>
				<path class="st4" d="M84.4,91.2c0,0,0-0.2-0.1-0.5c-0.1-0.3-0.1-0.7-0.2-1.3c-0.1-0.5-0.3-1.2-0.5-1.9c-0.1-0.4-0.2-0.8-0.4-1.2
					c-0.1-0.4-0.3-0.8-0.5-1.2c-0.2-0.4-0.4-0.9-0.7-1.3c-0.2-0.4-0.5-0.9-0.8-1.3c-0.6-0.8-1.3-1.7-2.2-2.4
					c-0.8-0.7-1.8-1.4-2.9-1.8c-1.1-0.4-2.2-0.7-3.4-0.7c-1.3,0-2.3,0.2-3.4,0.7c-1.1,0.4-2,1.1-2.9,1.8c-0.9,0.7-1.6,1.6-2.2,2.4
					c-0.3,0.4-0.6,0.9-0.8,1.3c-0.3,0.4-0.5,0.9-0.7,1.3c-0.2,0.4-0.4,0.8-0.5,1.2c-0.2,0.4-0.3,0.8-0.4,1.2
					c-0.2,0.7-0.4,1.4-0.5,1.9c-0.1,0.5-0.2,1-0.2,1.3C61,91,61,91.2,61,91.2s0-0.2,0-0.5c0-0.3-0.1-0.8-0.1-1.3
					c0-0.6,0-1.3,0.2-2.1c0-0.4,0.1-0.8,0.2-1.3c0.1-0.4,0.2-0.9,0.4-1.4c0.3-1,0.7-2,1.3-3c0.6-1,1.3-2,2.3-2.9
					c0.9-0.9,2-1.7,3.3-2.3c1.2-0.6,2.8-0.9,4.1-0.9c1.4,0,2.8,0.3,4.1,0.9c1.3,0.5,2.4,1.4,3.3,2.3c1,0.9,1.7,1.9,2.3,2.9
					c0.6,1,1,2,1.3,3c0.2,0.5,0.3,0.9,0.4,1.4c0.1,0.4,0.2,0.9,0.2,1.3c0.1,0.8,0.1,1.5,0.2,2.1c0,0.6,0,1-0.1,1.3
					C84.4,91,84.4,91.2,84.4,91.2z"/>
			</g>
			<g>
				<path class="st4" d="M131,92.6c0,0,0-0.2-0.1-0.6c-0.1-0.4-0.1-0.9-0.3-1.6c-0.1-0.7-0.3-1.5-0.6-2.4c-0.1-0.5-0.3-0.9-0.5-1.4
					c-0.2-0.5-0.4-1-0.6-1.5c-0.1-0.3-0.2-0.5-0.4-0.8c-0.1-0.3-0.3-0.5-0.4-0.8c-0.3-0.6-0.6-1.1-1-1.6c-0.8-1.1-1.6-2.1-2.7-3
					c-1-0.9-2.3-1.7-3.6-2.3c-0.3-0.2-0.7-0.3-1-0.4c-0.3-0.1-0.7-0.2-1-0.3c-0.4,0-0.7-0.2-1.1-0.2l-0.5,0l-0.3,0l-0.1,0l-0.1,0
					l0,0l0,0c0,0-0.1,0,0,0l-1.2,0.1c-0.4,0-0.7,0.1-1.1,0.2c-0.3,0-0.7,0.1-1,0.3c-0.3,0.1-0.7,0.2-1,0.4c-1.3,0.5-2.5,1.3-3.6,2.3
					c-1.1,0.9-1.9,2-2.7,3c-0.4,0.5-0.7,1.1-1,1.6c-0.2,0.3-0.3,0.5-0.4,0.8c-0.1,0.3-0.2,0.5-0.4,0.8c-0.3,0.5-0.4,1-0.6,1.5
					c-0.2,0.5-0.4,1-0.5,1.4c-0.3,0.9-0.4,1.7-0.6,2.4c-0.1,0.7-0.2,1.2-0.3,1.6c-0.1,0.4-0.1,0.6-0.1,0.6s0-0.2,0-0.6
					c0-0.4-0.1-0.9,0-1.6c0-0.7,0.1-1.6,0.2-2.5c0.1-0.5,0.2-1,0.3-1.5c0.1-0.5,0.3-1.1,0.5-1.7c0.1-0.3,0.2-0.6,0.3-0.9
					c0.1-0.3,0.3-0.6,0.4-0.9c0.2-0.6,0.6-1.2,0.9-1.8c0.7-1.2,1.6-2.5,2.8-3.5c1.1-1.1,2.5-2.1,4-2.7c0.4-0.2,0.8-0.3,1.2-0.4
					c0.4-0.1,0.8-0.3,1.3-0.3c0.4-0.1,0.9-0.2,1.3-0.2l1.2-0.1c0.1,0,0,0,0.1,0l0,0l0,0l0.1,0l0.2,0l0.3,0l0.6,0
					c0.4,0,0.8,0.1,1.3,0.2c0.4,0.1,0.8,0.2,1.2,0.3c0.4,0.1,0.8,0.3,1.2,0.4c1.6,0.6,2.9,1.7,4,2.7c1.2,1.1,2,2.3,2.8,3.5
					c0.3,0.6,0.7,1.2,0.9,1.8c0.1,0.3,0.3,0.6,0.4,0.9c0.1,0.3,0.2,0.6,0.3,0.9c0.2,0.6,0.4,1.1,0.5,1.7c0.1,0.5,0.2,1.1,0.3,1.5
					c0.2,1,0.2,1.8,0.2,2.5c0,0.7,0,1.2,0,1.6C131,92.4,131,92.6,131,92.6z"/>
			</g>
			<g>
				<path class="st4" d="M104.1,68.2c0,0,0.1,0.1,0.3,0.3c0.2,0.2,0.4,0.4,0.8,0.7c0.6,0.6,1.6,1.3,2.7,2.1c1.1,0.8,2.4,1.6,3.8,2.2
					c0.7,0.3,1.4,0.6,2.2,0.7c0.7,0.2,1.5,0.3,2.3,0.4c0.8,0.1,1.6,0.1,2.4,0.1c0.8,0,1.6-0.1,2.4-0.2c0.4,0,0.8-0.1,1.2-0.2
					c0.4-0.1,0.8-0.1,1.2-0.2c0.8-0.1,1.5-0.3,2.2-0.4c0.7-0.1,1.3-0.3,1.9-0.4c0.6-0.1,1.1-0.2,1.5-0.3c0.9-0.2,1.4-0.2,1.4-0.2
					s-0.3,0.4-0.9,1.1c-0.3,0.3-0.7,0.7-1.1,1.2c-0.5,0.4-1,0.9-1.6,1.3c-0.6,0.5-1.3,0.9-2.1,1.3c-0.8,0.4-1.7,0.8-2.6,1.1
					c-0.5,0.2-1,0.3-1.5,0.4c-0.5,0.1-1,0.2-1.6,0.3c-1.1,0.2-2.2,0.1-3.3,0c-1.1-0.1-2.2-0.4-3.3-0.8c-1.1-0.4-2-0.9-2.9-1.5
					c-0.9-0.6-1.6-1.3-2.2-2c-0.6-0.7-1.1-1.4-1.5-2.1c-0.8-1.4-1.2-2.6-1.4-3.5C104,68.7,104.1,68.2,104.1,68.2z"/>
			</g>
			<g>
				<path class="st9" d="M69,117.6c0,0,0.4,0.1,1.2,0.3c0.7,0.2,1.8,0.5,3,0.9c2.5,0.7,5.7,1.8,8.9,2.9c0.8,0.3,1.6,0.5,2.4,0.8
					c0.8,0.2,1.6,0.5,2.3,0.8c0.8,0.2,1.5,0.5,2.2,0.7c0.7,0.2,1.4,0.4,2,0.6c0.6,0.2,1.2,0.3,1.7,0.5c0.5,0.2,1,0.2,1.3,0.4
					c0.7,0.2,1.2,0.3,1.2,0.3s-0.4,0.1-1.2,0.3c-0.4,0.1-0.9,0.2-1.4,0.2c-0.5,0-1.2,0.1-1.8,0.1c-0.7,0-1.4,0-2.2-0.1
					c-0.8-0.1-1.6-0.2-2.4-0.3c-1.6-0.3-3.4-0.7-5-1.3c-0.8-0.3-1.7-0.6-2.5-0.9c-0.8-0.3-1.6-0.7-2.3-1c-1.5-0.7-2.8-1.5-3.9-2.2
					c-1.1-0.7-2-1.4-2.6-1.9C69.4,118,69,117.6,69,117.6z"/>
			</g>
		</g>
		<path class="st10" d="M136.5,155.5h-63c-2.9,0-5.2,3.2-5,7l1.6,39.7c9.9,3.2,20.4,4.9,31.3,4.9c14.1,0,27.6-2.9,39.8-8.1l0.3-36.6
			C141.7,158.7,139.4,155.5,136.5,155.5z"/>
		<path class="st11" d="M132,161c-6.2,1.9-5.5,10-4.5,18.4c0.7,5.9,3.1,23.5,3.1,23.5c3.6-1.1,7.2-2.4,10.6-3.8l0.3-34.3l-1.1-3.6
			C139.1,157,138.1,159.2,132,161z"/>
		<path class="st11" d="M96.9,171c-0.4,0-0.7,0.9-0.7,2v34.2c0.5,0,0.9,0.1,1.4,0.1v-34.2C97.6,171.8,97.3,171,96.9,171z"/>
		<polygon class="st8" points="96.9,196.7 115.9,155.5 86.9,155.5 		"/>
		<polygon class="st11" points="115.9,155.5 123.1,166 112.8,171.9 115.9,184.3 96.9,203.4 96.9,196.7 		"/>
		<polygon class="st11" points="86.9,155.5 79.6,166 86.9,171.8 84.3,182.6 96.9,203.4 96.9,196.7 		"/>
		<polygon class="st12" points="101,155.5 105,163.8 117.2,157.4 112.2,150.9 		"/>
		<polygon class="st12" points="93.9,155.5 88.6,162.6 84.3,155.5 89.9,150.9 		"/>
		<path class="st10" d="M147.3,160.6c-1.3-4.3-7.3-6.2-13.5-4.4c-6.2,1.9-10.1,6.8-8.8,11.1l11.1,33.8c7.3-2.7,14.2-6.2,20.7-10.4
			L147.3,160.6z"/>
	</g>
</g>
</svg>
